<?xml version="1.0" standalone="no"?>
<!DOCTYPE svg PUBLIC "-//W3C//DTD SVG 20010904//EN"
 "http://www.w3.org/TR/2001/REC-SVG-20010904/DTD/svg10.dtd">
<svg version="1.0" xmlns="http://www.w3.org/2000/svg"
 width="512.000000pt" height="512.000000pt" viewBox="0 0 512.000000 512.000000"
 preserveAspectRatio="xMidYMid meet">

<g transform="translate(0.000000,512.000000) scale(0.100000,-0.100000)"
fill="#000000" stroke="none">
<path d="M2480 5098 c-40 -21 -63 -51 -195 -249 -83 -123 -256 -381 -386 -574
-736 -1096 -1085 -1772 -1165 -2260 -19 -118 -14 -347 10 -485 106 -595 484
-1092 1031 -1351 333 -158 707 -211 1075 -153 644 101 1207 563 1434 1176 81
218 111 386 111 623 0 142 -4 187 -23 274 -89 398 -353 937 -812 1661 -68 107
-291 446 -497 752 -289 431 -381 561 -409 579 -54 33 -119 36 -174 7z m417
-985 c356 -538 422 -640 590 -923 295 -495 454 -838 530 -1145 26 -106 23
-356 -6 -494 -114 -537 -486 -955 -991 -1115 -374 -119 -768 -90 -1115 81
-459 226 -752 643 -816 1157 -35 285 37 559 269 1021 105 210 278 514 445 780
108 172 750 1135 757 1135 4 0 156 -224 337 -497z"/>
<path d="M3571 1959 c-79 -31 -114 -89 -126 -204 -27 -267 -179 -513 -411
-662 -89 -57 -124 -107 -124 -175 0 -147 144 -232 276 -162 225 119 450 384
544 642 61 168 90 405 56 470 -40 77 -142 120 -215 91z"/>
</g>
</svg>
