<?xml version="1.0" standalone="no"?>
<!DOCTYPE svg PUBLIC "-//W3C//DTD SVG 20010904//EN"
 "http://www.w3.org/TR/2001/REC-SVG-20010904/DTD/svg10.dtd">
<svg version="1.0" xmlns="http://www.w3.org/2000/svg"
 width="512.000000pt" height="512.000000pt" viewBox="0 0 512.000000 512.000000"
 preserveAspectRatio="xMidYMid meet">

<g transform="translate(0.000000,512.000000) scale(0.100000,-0.100000)"
fill="#000000" stroke="none">
<path d="M3526 4350 c-315 -36 -588 -147 -851 -346 -49 -37 -172 -137 -273
-221 -271 -228 -416 -317 -614 -377 -142 -44 -272 -59 -458 -53 -355 11 -579
102 -900 369 -137 113 -163 128 -230 128 -114 0 -200 -89 -200 -205 1 -55 34
-108 111 -176 332 -292 598 -432 944 -495 78 -14 150 -18 325 -18 175 0 247 4
325 18 203 37 373 100 545 200 138 80 229 149 507 384 279 234 455 328 713
379 118 24 422 24 540 0 246 -49 434 -146 677 -349 135 -113 138 -115 194
-127 129 -29 253 85 235 215 -9 69 -30 98 -128 181 -334 285 -594 419 -928
477 -112 20 -418 29 -534 16z"/>
<path d="M3595 3260 c-404 -28 -704 -162 -1090 -486 -248 -208 -286 -238 -375
-298 -229 -155 -446 -217 -750 -217 -383 0 -614 90 -958 376 -151 125 -191
141 -286 113 -83 -25 -147 -127 -133 -213 12 -71 37 -103 169 -212 371 -308
667 -435 1075 -462 340 -23 664 39 923 175 178 94 272 163 594 433 357 300
586 392 976 392 383 0 614 -90 958 -376 151 -125 191 -141 286 -113 83 25 147
127 133 213 -11 67 -38 103 -145 193 -394 329 -677 453 -1106 482 -78 5 -145
9 -151 8 -5 0 -59 -4 -120 -8z"/>
<path d="M3550 2164 c-388 -46 -679 -175 -995 -441 -271 -228 -342 -285 -416
-335 -157 -105 -310 -170 -489 -205 -118 -24 -422 -24 -540 0 -246 49 -434
146 -677 349 -137 114 -140 116 -198 127 -130 24 -249 -86 -231 -215 9 -69 30
-98 128 -181 335 -286 590 -417 933 -479 141 -25 489 -25 630 0 205 37 372 97
545 196 128 74 238 156 478 357 272 229 418 318 614 377 154 46 194 51 408 51
214 0 254 -5 408 -51 178 -53 337 -146 542 -316 137 -113 163 -128 230 -128
114 0 200 89 200 205 -1 54 -35 108 -111 176 -325 287 -605 434 -944 495 -86
15 -434 27 -515 18z"/>
</g>
</svg>
